<?xml version="1.0" encoding="UTF-8" standalone="no"?>
<!-- Created with Inkscape (http://www.inkscape.org/) -->

<svg
   xmlns:dc="http://purl.org/dc/elements/1.1/"
   xmlns:cc="http://creativecommons.org/ns#"
   xmlns:rdf="http://www.w3.org/1999/02/22-rdf-syntax-ns#"
   xmlns:svg="http://www.w3.org/2000/svg"
   xmlns="http://www.w3.org/2000/svg"
   xmlns:sodipodi="http://sodipodi.sourceforge.net/DTD/sodipodi-0.dtd"
   xmlns:inkscape="http://www.inkscape.org/namespaces/inkscape"
   width="42.325836mm"
   height="42.32859mm"
   viewBox="0 0 149.97344 149.98319"
   id="svg4527"
   version="1.1"
   inkscape:version="0.91 r13725"
   sodipodi:docname="moznp_logo_circle.svg">
  <defs
     id="defs4529" />
  <sodipodi:namedview
     id="base"
     pagecolor="#ffffff"
     bordercolor="#666666"
     borderopacity="1.0"
     inkscape:pageopacity="0.0"
     inkscape:pageshadow="2"
     inkscape:zoom="1.979899"
     inkscape:cx="-448.77309"
     inkscape:cy="475.59145"
     inkscape:document-units="px"
     inkscape:current-layer="layer1"
     showgrid="false"
     fit-margin-top="0"
     fit-margin-left="0"
     fit-margin-right="0"
     fit-margin-bottom="0"
     inkscape:window-width="1920"
     inkscape:window-height="1058"
     inkscape:window-x="0"
     inkscape:window-y="22"
     inkscape:window-maximized="1" />
  <metadata
     id="metadata4532">
    <rdf:RDF>
      <cc:Work
         rdf:about="">
        <dc:format>image/svg+xml</dc:format>
        <dc:type
           rdf:resource="http://purl.org/dc/dcmitype/StillImage" />
        <dc:title></dc:title>
      </cc:Work>
    </rdf:RDF>
  </metadata>
  <g
     inkscape:label="Layer 1"
     inkscape:groupmode="layer"
     id="layer1"
     transform="translate(-70.149976,-360.22775)">
    <g
       id="g5463"
       transform="translate(313.65236,69.700525)">
      <path
         id="path5325"
         d="m -132.47084,226.21997 c -0.78649,-0.40133 -2.23944,-1.59317 -3.22878,-2.64853 l -1.79876,-1.91885 -1.79537,1.49032 c -6.06254,5.03247 -18.69661,4.35873 -23.86495,-1.27266 -2.38854,-2.60254 -3.35607,-5.31133 -3.39041,-9.49207 -0.0853,-10.38182 6.44229,-15.45275 20.68594,-16.06992 l 5.33604,-0.2312 -0.10253,-2.77419 c -0.16103,-4.35611 -1.14432,-5.59609 -4.76362,-6.00721 -3.11104,-0.35339 -8.65409,1.38343 -13.34098,4.18019 l -1.60611,0.95839 -2.12937,-3.48593 c -1.17116,-1.91727 -2.37509,-3.86119 -2.67541,-4.31984 -0.5286,-0.80728 -0.422,-0.89355 3.34021,-2.7031 7.55801,-3.63525 14.56605,-5.0807 20.85682,-4.30185 7.6526,0.94744 11.46069,4.17046 12.47623,10.55935 0.23859,1.50111 0.36641,7.59886 0.30455,14.52837 l -0.10664,11.94152 1.10535,1.80351 c 0.60796,0.99194 1.54177,2.07777 2.07513,2.41295 0.53337,0.33519 0.96978,0.74894 0.96978,0.91945 0,0.45319 -5.98357,6.98033 -6.48863,7.07808 -0.23566,0.0456 -1.07196,-0.24545 -1.85849,-0.64678 z"
         style="fill:#000000"
         inkscape:connector-curvature="0" />
      <path
         id="path5323"
         d="m -145.44206,217.49537 c 0.77507,-0.20651 2.15355,-0.98652 3.06329,-1.73336 l 1.65401,-1.35788 0,-4.94939 0,-4.94939 -3.85381,0.17953 c -4.04678,0.18852 -5.55589,0.66925 -7.07939,2.25517 -1.12793,1.17412 -1.84303,3.86776 -1.5405,5.80262 0.62531,3.99944 3.64314,5.84861 7.7564,4.7527 z"
         style="fill:#000000"
         inkscape:connector-curvature="0" />
      <path
         id="path5321"
         d="m -315.3271,225.26209 c -8.06925,-1.6814 -14.04842,-8.31846 -15.70581,-17.43394 -2.54405,-13.99195 3.38853,-26.11848 14.38769,-29.40925 3.02526,-0.90511 9.28219,-1.07143 12.47929,-0.33172 7.47218,1.72883 13.0311,7.33972 15.26909,15.41184 0.6392,2.3055 0.81848,4.08488 0.81362,8.07493 -0.007,5.84463 -0.76297,9.3458 -2.93335,13.58753 -1.68838,3.29975 -5.62726,7.15599 -8.73701,8.55373 -4.50697,2.02574 -10.4449,2.61554 -15.57352,1.54688 z"
         style="fill:#000000"
         inkscape:connector-curvature="0" />
      <path
         id="path5319"
         d="m -306.45451,216.37207 c 3.00339,-1.75637 4.40986,-5.64978 4.74379,-13.13192 0.37452,-8.39149 -0.93806,-13.71184 -3.87821,-15.71978 -1.31451,-0.89773 -4.33306,-1.37679 -6.05831,-0.96149 -1.58567,0.3817 -3.61014,2.33502 -4.51811,4.35933 -1.82308,4.06453 -2.06675,15.59644 -0.43651,20.65866 0.78435,2.43554 2.44683,4.39843 4.33304,5.11602 1.67483,0.63717 4.43673,0.48477 5.81431,-0.32082 z"
         style="fill:#000000"
         inkscape:connector-curvature="0" />
      <path
         id="path5317"
         d="m -207.84726,225.11513 c -2.47734,-0.82063 -4.62837,-2.65196 -5.64388,-4.80506 -1.27985,-2.71356 -1.5367,-8.08994 -1.63986,-34.32562 l -0.1008,-25.63553 6.12658,-1.34202 c 3.36961,-0.73811 6.19926,-1.27294 6.28811,-1.18853 0.43701,0.41524 0.78145,15.42223 0.80284,34.97908 0.0208,19.00256 0.10248,21.89979 0.64865,23.00368 0.6352,1.28384 2.43829,2.23203 3.50081,1.84098 0.31155,-0.11466 0.63528,0.0957 0.75383,0.48987 0.11428,0.37996 0.58899,1.94835 1.05491,3.48533 0.46591,1.53697 0.69975,2.92615 0.51963,3.08706 -0.60539,0.54084 -4.49277,1.13182 -7.36285,1.11934 -1.70312,-0.007 -3.6903,-0.29199 -4.94797,-0.70858 z"
         style="fill:#000000"
         inkscape:connector-curvature="0" />
      <path
         id="path5315"
         d="m -181.70395,225.29038 c -3.6136,-1.08369 -5.7349,-3.08884 -6.87526,-6.49878 -0.36775,-1.09966 -0.57327,-8.61942 -0.79174,-28.96963 -0.16228,-15.11645 -0.41187,-27.91093 -0.55464,-28.43219 -0.25869,-0.94451 -0.23757,-0.95247 6.18972,-2.33452 3.54712,-0.76273 6.53824,-1.30307 6.64693,-1.20075 0.1087,0.10231 0.28657,12.92377 0.39527,28.49214 0.18376,26.31947 0.2475,28.39372 0.90827,29.55445 0.74947,1.31656 2.30325,2.13034 3.41902,1.79069 0.54714,-0.16655 0.84914,0.42077 1.69787,3.30202 0.76287,2.58974 0.91085,3.57704 0.56689,3.78208 -1.77758,1.05962 -8.75314,1.36894 -11.60233,0.51449 z"
         style="fill:#000000"
         inkscape:connector-curvature="0" />
      <path
         id="path5313"
         d="m -402.49676,204.70149 c -0.10301,-13.01081 -0.30962,-20.46087 -0.59137,-21.32415 -0.23817,-0.72976 -0.54592,-1.67838 -0.68389,-2.10805 -0.23177,-0.72181 0.17353,-0.89087 5.32992,-2.22327 3.06942,-0.79313 5.67505,-1.35164 5.79027,-1.24112 0.11523,0.11051 0.51869,1.15935 0.89658,2.33075 l 0.68708,2.12982 1.55326,-1.20139 c 2.847,-2.20203 5.51376,-3.13142 9.45851,-3.29636 4.86745,-0.20351 7.44415,0.70015 10.51151,3.68644 l 2.21099,2.15255 1.74164,-1.49592 c 0.9579,-0.82275 3.05992,-2.10054 4.67115,-2.83953 2.45303,-1.12507 3.47343,-1.37099 6.27364,-1.51195 4.06437,-0.2046 6.88925,0.35434 9.34743,1.84951 1.48697,0.90443 2.10196,1.63122 3.1138,3.67984 l 1.26086,2.55281 0.11565,19.42866 0.11564,19.42867 -5.94577,0 -5.94577,0 -0.0288,-15.82726 c -0.032,-17.53852 -0.18369,-19.57935 -1.53337,-20.62755 -1.9674,-1.52795 -6.55287,-0.52307 -10.0445,2.20119 l -1.04169,0.81275 0,16.72043 0,16.72044 -5.90683,0 -5.90683,0 -0.12092,-17.15409 c -0.10936,-15.51202 -0.1874,-17.2707 -0.81529,-18.37222 -1.57504,-2.76318 -6.95469,-2.33996 -10.91851,0.85896 l -1.23318,0.99521 0,16.83607 0,16.83607 -6.10142,0 -6.10142,0 -0.15832,-19.99731 z"
         style="fill:#000000"
         inkscape:connector-curvature="0" />
      <path
         id="path5311"
         d="m -284.20516,220.94589 0,-3.7529 11.2883,-14.91757 11.28831,-14.91757 -10.39897,-0.18955 -10.39896,-0.18955 -0.11219,-4.07528 -0.11218,-4.07528 17.99783,0 17.99783,0 0,4.11378 0,4.11377 -10.64645,14.65147 -10.64644,14.65148 11.04171,0 c 6.50121,0 11.0417,0.1442 11.0417,0.35068 0,0.19288 -0.64365,2.0694 -1.43034,4.17006 l -1.43034,3.81937 -17.73991,0 -17.7399,0 0,-3.75291 z"
         style="fill:#000000"
         inkscape:connector-curvature="0" />
      <path
         id="path5309"
         d="m -239.1452,201.97022 0,-22.72857 1.28461,-0.20482 c 0.70653,-0.11265 2.97435,-0.46242 5.0396,-0.77728 2.06524,-0.31486 4.33306,-0.66464 5.0396,-0.77728 l 1.2846,-0.20482 0,23.71068 0,23.71067 -6.3242,0 -6.32421,0 0,-22.72858 z"
         style="fill:#000000"
         inkscape:connector-curvature="0" />
      <path
         id="path5276"
         d="m -236.17985,172.16543 c -2.80374,-1.40212 -4.15114,-3.62277 -4.15114,-6.84151 0,-3.02551 1.28098,-5.05038 4.02451,-6.36162 4.71631,-2.2541 9.64558,-0.18245 10.97586,4.6129 0.98062,3.53491 -1.05644,7.55349 -4.45282,8.78424 -1.63029,0.59078 -5.03352,0.48755 -6.39641,-0.19401 z"
         style="fill:#000000"
         inkscape:connector-curvature="0" />
    </g>
    <path
       style="opacity:1;fill:#0075cb;fill-opacity:1;stroke:none;stroke-width:14.10000038;stroke-miterlimit:4;stroke-dasharray:none;stroke-opacity:1"
       d="m 142.60952,360.27018 a 74.991753,74.991753 0 0 0 -65.417409,43.19992 74.991753,74.991753 0 0 0 7.792158,76.50263 63.372054,63.372054 0 0 1 -5.774834,-63.49204 63.372054,63.372054 0 0 1 84.241875,-30.58281 63.372054,63.372054 0 0 1 30.58282,84.24228 63.372054,63.372054 0 0 1 -84.24186,30.58241 63.372054,63.372054 0 0 1 -10.474224,-6.20989 74.991753,74.991753 0 0 0 14.064594,8.64586 74.991753,74.991753 0 0 0 99.68844,-36.19009 74.991753,74.991753 0 0 0 -36.19053,-99.68844 74.991753,74.991753 0 0 0 -34.27103,-7.00983 z"
       id="circle5347-4"
       inkscape:connector-curvature="0" />
    <circle
       inkscape:export-ydpi="129.36972"
       inkscape:export-xdpi="129.36972"
       transform="matrix(-0.46470278,-0.88546673,0.88546673,-0.46470278,0,0)"
       r="57.514408"
       cy="-85.03334"
       cx="-456.02515"
       id="circle5353-65"
       style="opacity:1;fill:#de362c;fill-opacity:1;stroke:none;stroke-width:14.10000038;stroke-miterlimit:4;stroke-dasharray:none;stroke-opacity:1" />
    <path
       inkscape:connector-curvature="0"
       style="fill:#ffffff"
       d="m 129.70538,432.69961 -2.90715,11.23344 -0.004,0 -9.95729,-5.95834 1.61335,11.49465 -11.48246,-1.69566 5.88778,9.99929 0,0.005 -11.25402,2.82694 9.2686,6.98717 -4.73424,3.51647 C 96.140246,465.09879 87.841607,456.10943 82.726637,444.79463 a 53.982222,53.982222 0 0 0 6.09566,23.60113 53.982222,53.982222 0 0 0 25.905673,24.25455 c 0.0312,0.0135 0.062,0.0277 0.0932,0.0412 a 53.982222,53.982222 0 0 0 4.101,1.57513 c 0.79555,0.26948 1.59854,0.52301 2.40996,0.75672 0.002,0 0.004,0.002 0.006,0.002 a 53.982222,53.982222 0 0 0 1.38786,0.3792 c 4.37949,1.13704 8.97087,1.75012 13.70389,1.76706 l -0.003,0 c 5.71145,0.0204 11.22338,-0.82793 16.41031,-2.42088 0,-9e-5 0,0 0,0 a 53.982222,53.982222 0 0 0 3.58155,-1.24005 c 0.22131,-0.0851 0.44149,-0.17246 0.66139,-0.26035 a 53.982222,53.982222 0 0 0 4.62591,-2.13996 53.982222,53.982222 0 0 0 28.8288,-46.00126 c -5.05178,10.98006 -13.31894,20.10541 -23.63052,26.21434 l -4.70655,-3.54838 9.31902,-6.92039 -11.23387,-2.90756 0,-0.005 5.95874,-9.95646 -11.49422,1.61336 1.69523,-11.48289 -9.99928,5.88778 -0.005,0 -2.82694,-11.25445 -6.98673,9.26905 -6.92123,-9.31859 z"
       id="path5355-6" />
    <path
       inkscape:connector-curvature="0"
       style="fill:#ffffff"
       d="m 145.03103,390.05271 4.5058,6.01544 0,0.002 -8.11382,3.40351 8.08905,3.46186 -5.32468,7.00439 8.73701,-1.04646 -1.10905,8.72901 7.04176,-5.27429 0.002,0 3.40392,8.11342 3.46145,-8.08863 0.003,0 7.00396,5.32467 -1.04646,-8.73699 7.28572,0.92552 A 53.982222,53.982222 0 0 0 145.03141,390.0526 Z"
       id="path5357-7" />
    <path
       style="fill:#de362c;fill-opacity:1"
       d="m 134.1916,483.11938 c -1.65358,-0.1642 -2.86095,-0.40595 -4.08767,-0.81841 -2.95753,-0.99451 -5.49595,-2.75452 -7.54837,-5.23376 -0.17013,-0.20393 -0.30668,-0.38592 -0.30661,-0.40446 1.3e-4,-0.0364 0.0694,-0.0785 0.50506,-0.30926 0.15663,-0.0834 0.4454,-0.23598 0.63987,-0.33927 0.19337,-0.10327 0.3975,-0.21008 0.45176,-0.23721 l 0.0983,-0.0493 -0.21567,-0.0235 c -0.11805,-0.0131 -0.29135,-0.0383 -0.38378,-0.0571 -0.0926,-0.0187 -0.26982,-0.0268 -0.39465,-0.0178 -0.13455,0.0103 -0.22724,0.005 -0.22718,-0.0136 0,-0.0636 0.80334,-0.81342 1.23053,-1.1491 0.24144,-0.18927 0.4434,-0.34826 0.44959,-0.35338 0.0219,-0.0163 -0.5738,0.17241 -0.91991,0.29337 -0.65402,0.22859 -1.11932,0.4545 -1.4612,0.70985 -0.13483,0.10002 -0.25015,0.18177 -0.25813,0.18174 -0.0618,0 0.0741,-0.39846 0.27372,-0.82713 0.0806,-0.16856 0.30399,-0.54598 0.49822,-0.83855 0.43747,-0.65823 0.57946,-0.88029 0.65064,-1.01673 l 0.0549,-0.10627 -0.19576,0.10795 c -0.58981,0.32515 -1.16249,0.68715 -1.6275,1.02889 -0.3058,0.2247 -0.7682,0.60367 -0.85655,0.70199 -0.13682,0.15202 -0.15291,0.0705 -0.0553,-0.28753 0.10133,-0.38238 0.29375,-0.68136 0.95602,-1.4919 0.21447,-0.26411 0.51704,-0.66126 0.66907,-0.88258 0.14979,-0.22141 0.38318,-0.53056 0.5133,-0.68721 0.19404,-0.23253 0.46829,-0.63501 0.46847,-0.68599 1.7e-4,-0.046 -1.19804,0.50022 -1.95272,0.89004 -0.90858,0.46938 -1.27094,0.66845 -1.95117,1.07166 -0.17303,0.1037 -0.32272,0.18357 -0.32852,0.17766 -0.0217,-0.0206 0.11769,-0.37894 0.24233,-0.62297 0.48741,-0.95874 1.51985,-2.27974 2.93014,-3.74855 0.14594,-0.15194 0.24415,-0.27647 0.21891,-0.27655 -0.0727,0 -0.65492,0.17793 -0.91535,0.28027 -0.39221,0.15401 -1.47747,0.6879 -2.13811,1.05197 -0.34289,0.18868 -0.70639,0.38855 -0.80852,0.44396 -0.10017,0.0554 -0.20029,0.11375 -0.21636,0.12969 -0.0638,0.057 -0.0928,0.027 -0.0761,-0.072 0.022,-0.0566 0.0222,-0.10079 -0.0215,-0.10095 -0.15268,0 0.31633,-0.5839 1.06303,-1.32589 0.65931,-0.65514 1.09344,-1.04848 2.2525,-2.04033 0.36569,-0.31298 0.65178,-0.57356 0.63546,-0.57909 -0.0963,-0.0322 -1.0043,0.24932 -1.61841,0.49994 -0.45499,0.18579 -0.69401,0.28972 -1.92722,0.83858 -0.8137,0.36206 -1.23738,0.53095 -1.26436,0.50394 -0.0706,-0.0717 0.49018,-0.82107 1.06611,-1.42368 0.76412,-0.80004 1.8118,-1.6962 3.46511,-2.96441 0.27133,-0.2078 0.6945,-0.53639 1.04209,-0.80884 0.10933,-0.0865 0.18228,-0.1629 0.15869,-0.17047 -0.0218,-0.007 -0.12726,0.0122 -0.23368,0.0424 -0.10372,0.0305 -0.36073,0.0979 -0.56393,0.14975 -0.43949,0.11148 -0.96921,0.24742 -1.61514,0.4142 -0.25889,0.0669 -0.73854,0.18686 -1.06614,0.26669 -0.32706,0.0801 -0.67525,0.1757 -0.7737,0.21307 -0.4064,0.1543 -0.96938,0.25264 -0.96908,0.16901 1e-4,-0.029 0.73498,-0.73039 1.56831,-1.49708 0.93393,-0.85924 2.32426,-2.03651 3.57401,-3.02653 0.24093,-0.1909 0.50542,-0.40087 0.58779,-0.46645 0.082,-0.0657 0.19135,-0.14925 0.24035,-0.18614 0.0492,-0.0369 0.35407,-0.2633 0.67606,-0.50326 0.86781,-0.64703 1.21874,-0.894 2.00072,-1.40898 0.65129,-0.42888 0.79151,-0.51678 1.17888,-0.73782 0.2324,-0.13255 1.33508,-0.66747 1.59936,-0.77568 1.34032,-0.54897 2.55461,-0.83589 3.852,-0.9103 0.44861,-0.0258 1.04558,0.0336 1.37744,0.1367 0.49087,0.15258 0.8975,0.28277 1.91406,0.61312 1.10208,0.3583 1.32774,0.42467 2.19493,0.64576 l 0.58361,0.14856 0.27339,-0.0766 c 1.88529,-0.52985 3.37909,-0.49543 4.39246,0.10114 0.39485,0.23261 1.09683,1.01216 1.39786,1.55218 0.056,0.10305 0.16056,0.33031 0.22665,0.50498 0.11344,0.29574 0.12415,0.34661 0.13182,0.7378 0.0204,0.38724 -0.0241,0.6277 -0.0755,0.78422 -0.022,0.0475 0.0287,0.1137 0.21017,0.28996 0.97166,0.94433 2.2653,1.65233 4.70565,2.57581 0.13796,0.0523 0.37281,0.14111 0.52019,0.19703 0.147,0.056 0.41977,0.15686 0.60472,0.22435 1.29197,0.47249 2.29205,0.93765 2.91861,1.35798 0.3367,0.22543 0.86777,0.73094 0.92322,0.87826 0.0468,0.12305 0.0801,0.44888 0.14414,1.35809 0.0986,1.4079 0.15151,1.84626 0.29821,2.43806 0.10576,0.42117 0.0879,0.83702 -0.0421,1.10904 -0.19685,0.41681 -0.53028,1.14908 -0.70086,1.54368 -0.0568,0.12919 -0.13745,0.31799 -0.18144,0.41953 -0.29157,0.6761 -0.40545,1.01071 -0.35467,1.04223 0.029,0.0185 0.0215,0.0706 -0.097,0.18845 -0.20516,0.24207 -0.27624,0.29984 -0.49756,0.40257 -0.18881,0.0882 -0.22861,0.0935 -0.63894,0.0906 -0.24029,0 -0.52336,-0.0222 -0.62869,-0.0464 l -0.19064,-0.0432 -0.17861,0.13036 c -0.48089,0.35168 -1.00634,0.67844 -1.76168,1.09516 -0.85059,0.46928 -0.74034,0.43267 -1.29556,0.43082 -0.69807,-0.002 -1.33753,-0.11475 -2.78813,-0.48943 -1.32291,-0.34175 -1.6848,-0.42377 -2.14953,-0.48724 -0.59704,-0.0817 -0.86947,-0.0851 -1.27974,-0.0174 -0.3895,0.0648 -0.73004,0.20095 -1.33422,0.53345 -0.58874,0.32407 -0.7668,0.42015 -1.12095,0.60518 -0.83596,0.43631 -1.39273,0.98162 -1.80628,1.76769 -0.32919,0.62617 -0.52824,1.2823 -0.86457,2.85336 -0.22408,1.05231 -0.46393,1.85971 -0.63892,2.16252 l -0.0878,0.14781 0.10245,0.32291 c 0.11501,0.36078 0.25897,0.96921 0.23579,0.99213 -0.0218,0.007 -0.2417,0.0362 -0.51927,0.0618 -0.45361,0.042 -2.41987,0.0597 -2.77289,0.0244 z"
       id="path5359-25"
       inkscape:connector-curvature="0" />
    <text
       xml:space="preserve"
       style="font-style:normal;font-variant:normal;font-weight:bold;font-stretch:normal;font-size:92.37007904px;line-height:125%;font-family:Meta;-inkscape-font-specification:'Meta Bold';letter-spacing:0px;word-spacing:0px;fill:#0075cb;fill-opacity:1;stroke:none;stroke-width:1px;stroke-linecap:butt;stroke-linejoin:miter;stroke-opacity:1"
       x="-107.32619"
       y="202.6076"
       id="text5270"
       sodipodi:linespacing="125%"
       transform="scale(1.0245212,0.9760657)"><tspan
         sodipodi:role="line"
         id="tspan5272"
         x="-107.32619"
         y="202.6076">mozilla</tspan></text>
    <g
       id="g5475"
       transform="translate(-178.57143,-198.57143)">
      <path
         id="path5333"
         d="m -253.07821,331.15998 -6.22539,-5.69422 0,-38.44196 0,-38.44196 -12.45078,0 -12.45078,0 0,4.73626 0,4.73626 2.70049,2.56134 c 3.80617,3.61005 5.00713,6.08837 5.00713,10.3328 0,2.70755 -0.17022,3.5707 -1.06558,5.40312 -2.12235,4.34356 -6.58362,7.90484 -13.52003,10.79257 -9.80126,4.08042 -18.86538,5.52062 -23.39032,3.7165 -1.28,-0.51034 -2.89112,-3.06211 -2.28007,-3.61128 0.18395,-0.16533 3.59268,-1.26019 7.57496,-2.43302 7.69242,-2.26552 11.44084,-3.85333 15.30963,-6.4851 5.00572,-3.40516 6.51134,-6.03967 5.02767,-8.79729 -1.47671,-2.74467 -4.25942,-3.88733 -9.47507,-3.89073 -4.20282,-0.003 -6.76995,0.5289 -10.28996,2.131 -5.41077,2.46267 -9.96164,7.11919 -11.38303,11.6473 -0.7757,2.47116 -0.78498,7.07987 -0.0192,9.50603 2.18608,6.92539 12.08148,13.10677 20.98185,13.10677 5.46639,0 12.07141,-3.56455 16.10178,-8.68968 l 1.02019,-1.29729 3.99756,3.53786 3.99756,3.53786 -0.89872,0.92803 c -1.33051,1.37389 -5.31247,4.01041 -8.01345,5.30584 -5.9912,2.87347 -13.44662,4.17529 -20.05959,3.50267 -5.98522,-0.60876 -9.62685,-1.8797 -14.79609,-5.16391 -10.31278,-6.5521 -15.19531,-18.51797 -12.15996,-29.80108 2.69426,-10.01518 12.82311,-17.48293 25.62056,-18.88938 2.25439,-0.24776 4.53517,-0.2706 6.07864,-0.0609 l 2.4704,0.33567 0,-3.34912 0,-3.34912 -46.83865,0 -46.83864,0 0,8.92509 0,8.9251 2.66802,-2.06156 c 5.86684,-4.53326 13.0034,-8.50845 18.47854,-10.29288 7.25505,-2.36452 16.25473,-0.067 22.13472,5.65075 4.55502,4.42934 6.50409,8.98639 6.51599,15.2348 0.0111,5.84183 -1.30623,9.23884 -9.35405,24.12088 -5.67609,10.49622 -5.38281,10.21274 -8.83726,8.54201 -1.28184,-0.61995 -2.01362,-1.31899 -2.67879,-2.5589 -1.39707,-2.60419 -1.07416,-4.56553 1.68596,-10.24052 4.32247,-8.8873 5.77032,-13.56345 5.7902,-18.7007 0.0204,-5.27519 -1.76929,-8.48327 -5.81616,-10.4256 -6.24568,-2.99767 -10.9401,-1.52488 -23.28934,7.30663 l -7.1002,5.07767 -0.19763,15.19977 -0.19763,15.19976 -6.22539,-5.72025 -6.22539,-5.72024 0,-24.2309 0,-24.23091 -2.71856,0 -2.71855,0 -3.40802,-5.73571 c -1.87441,-3.15465 -3.40802,-5.88414 -3.40802,-6.06554 0,-0.18644 64.6651,-0.32982 148.7554,-0.32982 l 148.75541,0 3.58235,6.06554 3.58234,6.06553 -15.57683,0 -15.5768,0 0,2.38955 0,2.38955 3.11882,1.22302 c 5.96448,2.33891 10.83009,6.06428 12.70861,9.73036 l 0.97124,1.89548 0.10846,21.1346 c 0.0597,11.62403 0.0134,21.1346 -0.10217,21.1346 -0.11585,0 -2.59644,-1.79123 -5.51242,-3.98051 -2.91597,-2.18928 -5.40984,-3.98051 -5.54194,-3.98051 -0.13209,0 -1.16049,0.69772 -2.28533,1.55049 -4.09923,3.10772 -11.49432,5.96469 -17.62971,6.81097 -4.82868,0.66604 -12.97668,0.2855 -16.46843,-0.76912 -7.46991,-2.25615 -12.3435,-6.52639 -14.67353,-12.85695 -4.22262,-11.47262 6.5953,-24.13343 21.71758,-25.41729 8.67512,-0.73651 17.69779,1.91778 24.97224,7.34632 l 2.76684,2.06475 0.1091,-5.89999 c 0.1264,-6.83569 -0.174,-7.82644 -2.99218,-9.86853 -3.57057,-2.58728 -7.85174,-2.96591 -16.35965,-1.44682 -5.31272,0.94858 -10.24449,2.34283 -15.71828,4.4437 -1.64132,0.62994 -3.63112,1.36792 -4.42177,1.63995 l -1.43755,0.49459 -1.43758,-3.25711 c -0.79066,-1.79142 -1.29991,-3.36971 -1.13165,-3.50732 1.28678,-1.05243 20.84759,-7.75162 25.50392,-8.73459 l 2.27276,-0.47979 0,-2.0247 0,-2.0247 -47.23391,0 -47.2339,0 0,8.90875 c 0,4.89982 0.0943,8.90876 0.20953,8.90876 0.11524,0 1.34079,-0.92043 2.72345,-2.04539 5.24597,-4.26828 12.27964,-8.21416 18.01595,-10.10695 7.76812,-2.56321 16.55703,-0.43672 22.75203,5.50489 4.81726,4.62024 6.41872,9.24067 5.98312,17.26213 -0.22977,4.23097 -1.24671,8.51075 -2.84689,11.98104 -3.32131,7.20289 -11.31211,14.73565 -20.17762,19.02101 -3.91386,1.89186 -6.64563,2.51048 -10.84906,2.45681 -4.84543,-0.0619 -8.94953,-1.06972 -15.31192,-3.76015 -0.38373,-0.16227 -0.51189,3.07317 -0.59289,14.96722 l -0.10333,15.17424 -6.22539,-5.69422 z"
         style="fill:#000000"
         inkscape:connector-curvature="0" />
      <path
         id="path5331"
         d="m -224.26176,301.2887 c 3.57622,-1.67127 8.36345,-6.27911 10.76069,-10.35745 7.33318,-12.47569 5.16822,-23.92195 -4.93478,-26.09043 -1.81136,-0.38878 -2.49901,-0.3553 -4.79146,0.23331 -4.60268,1.18178 -11.48976,4.9507 -20.35157,11.1373 l -3.05025,2.12944 -0.013,6.85905 -0.013,6.85904 1.93446,2.6419 c 3.07738,4.20281 6.55282,6.86771 10.12106,7.76062 0.65218,0.16321 2.63622,0.2506 4.40897,0.19422 2.72034,-0.0865 3.6453,-0.29979 5.92894,-1.367 z"
         style="fill:#000000"
         inkscape:connector-curvature="0" />
      <path
         id="path5329"
         d="m -155.36703,300.30907 c 6.19618,-1.12731 12.72477,-3.55445 17.11192,-6.36167 l 1.8767,-1.20088 0,-2.66805 0,-2.66804 -2.5766,-1.62473 c -6.10657,-3.85061 -13.51063,-6.14514 -19.84442,-6.14978 -4.23728,-0.003 -6.14822,0.41316 -9.3357,2.03368 -2.50814,1.27513 -3.76992,2.60699 -4.94706,5.2218 -2.8623,6.35811 -0.097,12.08925 6.55885,13.5932 2.39715,0.54166 7.66877,0.45871 11.15477,-0.17553 z"
         style="fill:#000000"
         inkscape:connector-curvature="0" />
      <path
         id="path5327"
         d="m -99.711063,302.65403 -6.220207,-5.73746 -0.13823,-35.44547 c -0.11668,-29.92357 -0.23569,-36.06557 -0.76408,-39.42597 -0.91151,-5.79685 -1.40381,-7.35189 -3.14593,-9.93701 -1.34793,-2.00025 -1.5039,-2.4441 -1.1331,-3.22465 l 0.43,-0.90514 2.67668,1.34903 c 7.55427,3.80729 11.801877,9.48108 13.778107,18.40421 0.65211,2.94454 0.72448,6.1798 0.8395,37.53049 0.0693,18.8695 0.0745,36.29296 0.0119,38.7188 l -0.11419,4.41062 -6.22021,-5.73745 z"
         style="fill:#000000"
         inkscape:connector-curvature="0" />
    </g>
    <text
       xml:space="preserve"
       style="font-style:normal;font-weight:normal;font-size:40px;line-height:125%;font-family:sans-serif;letter-spacing:0px;word-spacing:0px;fill:#000000;fill-opacity:1;stroke:none;stroke-width:1px;stroke-linecap:butt;stroke-linejoin:miter;stroke-opacity:1"
       x="-659.68524"
       y="-7.9973273"
       id="text5562"
       sodipodi:linespacing="125%"><tspan
         sodipodi:role="line"
         id="tspan5564"
         x="-659.68524"
         y="-7.9973273">nepal</tspan></text>
  </g>
</svg>
