<?xml version="1.0" encoding="UTF-8" standalone="no"?>
<!-- Created with Inkscape (http://www.inkscape.org/) -->

<svg
   xmlns:dc="http://purl.org/dc/elements/1.1/"
   xmlns:cc="http://creativecommons.org/ns#"
   xmlns:rdf="http://www.w3.org/1999/02/22-rdf-syntax-ns#"
   xmlns:svg="http://www.w3.org/2000/svg"
   xmlns="http://www.w3.org/2000/svg"
   xmlns:sodipodi="http://sodipodi.sourceforge.net/DTD/sodipodi-0.dtd"
   xmlns:inkscape="http://www.inkscape.org/namespaces/inkscape"
   width="145.14584mm"
   height="60.639603mm"
   viewBox="0 0 514.29631 214.86473"
   id="svg4527"
   version="1.1"
   inkscape:version="0.91 r13725"
   sodipodi:docname="MozNP_Logo_Full.svg">
  <defs
     id="defs4529" />
  <sodipodi:namedview
     id="base"
     pagecolor="#ffffff"
     bordercolor="#666666"
     borderopacity="1.0"
     inkscape:pageopacity="0.0"
     inkscape:pageshadow="2"
     inkscape:zoom="1.4"
     inkscape:cx="205.82536"
     inkscape:cy="29.365811"
     inkscape:document-units="px"
     inkscape:current-layer="layer1"
     showgrid="false"
     fit-margin-top="0"
     fit-margin-left="0"
     fit-margin-right="0"
     fit-margin-bottom="0"
     inkscape:window-width="1920"
     inkscape:window-height="1058"
     inkscape:window-x="0"
     inkscape:window-y="22"
     inkscape:window-maximized="1"
     showguides="true"
     inkscape:guide-bbox="true">
    <sodipodi:guide
       position="-1002.8773,397.86008"
       orientation="1,0"
       id="guide4777" />
    <sodipodi:guide
       position="-110.98475,81.787772"
       orientation="1,0"
       id="guide4779" />
  </sodipodi:namedview>
  <metadata
     id="metadata4532">
    <rdf:RDF>
      <cc:Work
         rdf:about="">
        <dc:format>image/svg+xml</dc:format>
        <dc:type
           rdf:resource="http://purl.org/dc/dcmitype/StillImage" />
        <dc:title></dc:title>
      </cc:Work>
    </rdf:RDF>
  </metadata>
  <g
     inkscape:label="Layer 1"
     inkscape:groupmode="layer"
     id="layer1"
     transform="translate(32.079549,-110.34827)">
    <g
       id="g4877">
      <g
         transform="matrix(1.4325921,0,0,1.4325921,-132.57585,-405.71117)"
         id="g4796">
        <path
           style="opacity:1;fill:#0075cb;fill-opacity:1;stroke:none;stroke-width:14.10000038;stroke-miterlimit:4;stroke-dasharray:none;stroke-opacity:1"
           d="m 142.60952,360.27018 a 74.991753,74.991753 0 0 0 -65.417409,43.19992 74.991753,74.991753 0 0 0 7.792158,76.50263 63.372054,63.372054 0 0 1 -5.774834,-63.49204 63.372054,63.372054 0 0 1 84.241875,-30.58281 63.372054,63.372054 0 0 1 30.58282,84.24228 63.372054,63.372054 0 0 1 -84.24186,30.58241 63.372054,63.372054 0 0 1 -10.474224,-6.20989 74.991753,74.991753 0 0 0 14.064594,8.64586 74.991753,74.991753 0 0 0 99.68844,-36.19009 74.991753,74.991753 0 0 0 -36.19053,-99.68844 74.991753,74.991753 0 0 0 -34.27103,-7.00983 z"
           id="circle5347-4"
           inkscape:connector-curvature="0" />
        <circle
           inkscape:export-ydpi="129.36972"
           inkscape:export-xdpi="129.36972"
           transform="matrix(-0.46470278,-0.88546673,0.88546673,-0.46470278,0,0)"
           r="57.514408"
           cy="-85.03334"
           cx="-456.02515"
           id="circle5353-65"
           style="opacity:1;fill:#de362c;fill-opacity:1;stroke:none;stroke-width:14.10000038;stroke-miterlimit:4;stroke-dasharray:none;stroke-opacity:1" />
        <path
           inkscape:connector-curvature="0"
           style="fill:#ffffff"
           d="m 129.70538,432.69961 -2.90715,11.23344 -0.004,0 -9.95729,-5.95834 1.61335,11.49465 -11.48246,-1.69566 5.88778,9.99929 0,0.005 -11.25402,2.82694 9.2686,6.98717 -4.73424,3.51647 C 96.140246,465.09879 87.841607,456.10943 82.726637,444.79463 a 53.982222,53.982222 0 0 0 6.09566,23.60113 53.982222,53.982222 0 0 0 25.905673,24.25455 c 0.0312,0.0135 0.062,0.0277 0.0932,0.0412 a 53.982222,53.982222 0 0 0 4.101,1.57513 c 0.79555,0.26948 1.59854,0.52301 2.40996,0.75672 0.002,0 0.004,0.002 0.006,0.002 a 53.982222,53.982222 0 0 0 1.38786,0.3792 c 4.37949,1.13704 8.97087,1.75012 13.70389,1.76706 l -0.003,0 c 5.71145,0.0204 11.22338,-0.82793 16.41031,-2.42088 0,-9e-5 0,0 0,0 a 53.982222,53.982222 0 0 0 3.58155,-1.24005 c 0.22131,-0.0851 0.44149,-0.17246 0.66139,-0.26035 a 53.982222,53.982222 0 0 0 4.62591,-2.13996 53.982222,53.982222 0 0 0 28.8288,-46.00126 c -5.05178,10.98006 -13.31894,20.10541 -23.63052,26.21434 l -4.70655,-3.54838 9.31902,-6.92039 -11.23387,-2.90756 0,-0.005 5.95874,-9.95646 -11.49422,1.61336 1.69523,-11.48289 -9.99928,5.88778 -0.005,0 -2.82694,-11.25445 -6.98673,9.26905 -6.92123,-9.31859 z"
           id="path5355-6" />
        <path
           inkscape:connector-curvature="0"
           style="fill:#ffffff"
           d="m 145.03103,390.05271 4.5058,6.01544 0,0.002 -8.11382,3.40351 8.08905,3.46186 -5.32468,7.00439 8.73701,-1.04646 -1.10905,8.72901 7.04176,-5.27429 0.002,0 3.40392,8.11342 3.46145,-8.08863 0.003,0 7.00396,5.32467 -1.04646,-8.73699 7.28572,0.92552 A 53.982222,53.982222 0 0 0 145.03141,390.0526 Z"
           id="path5357-7" />
        <path
           style="fill:#de362c;fill-opacity:1"
           d="m 134.1916,483.11938 c -1.65358,-0.1642 -2.86095,-0.40595 -4.08767,-0.81841 -2.95753,-0.99451 -5.49595,-2.75452 -7.54837,-5.23376 -0.17013,-0.20393 -0.30668,-0.38592 -0.30661,-0.40446 1.3e-4,-0.0364 0.0694,-0.0785 0.50506,-0.30926 0.15663,-0.0834 0.4454,-0.23598 0.63987,-0.33927 0.19337,-0.10327 0.3975,-0.21008 0.45176,-0.23721 l 0.0983,-0.0493 -0.21567,-0.0235 c -0.11805,-0.0131 -0.29135,-0.0383 -0.38378,-0.0571 -0.0926,-0.0187 -0.26982,-0.0268 -0.39465,-0.0178 -0.13455,0.0103 -0.22724,0.005 -0.22718,-0.0136 0,-0.0636 0.80334,-0.81342 1.23053,-1.1491 0.24144,-0.18927 0.4434,-0.34826 0.44959,-0.35338 0.0219,-0.0163 -0.5738,0.17241 -0.91991,0.29337 -0.65402,0.22859 -1.11932,0.4545 -1.4612,0.70985 -0.13483,0.10002 -0.25015,0.18177 -0.25813,0.18174 -0.0618,0 0.0741,-0.39846 0.27372,-0.82713 0.0806,-0.16856 0.30399,-0.54598 0.49822,-0.83855 0.43747,-0.65823 0.57946,-0.88029 0.65064,-1.01673 l 0.0549,-0.10627 -0.19576,0.10795 c -0.58981,0.32515 -1.16249,0.68715 -1.6275,1.02889 -0.3058,0.2247 -0.7682,0.60367 -0.85655,0.70199 -0.13682,0.15202 -0.15291,0.0705 -0.0553,-0.28753 0.10133,-0.38238 0.29375,-0.68136 0.95602,-1.4919 0.21447,-0.26411 0.51704,-0.66126 0.66907,-0.88258 0.14979,-0.22141 0.38318,-0.53056 0.5133,-0.68721 0.19404,-0.23253 0.46829,-0.63501 0.46847,-0.68599 1.7e-4,-0.046 -1.19804,0.50022 -1.95272,0.89004 -0.90858,0.46938 -1.27094,0.66845 -1.95117,1.07166 -0.17303,0.1037 -0.32272,0.18357 -0.32852,0.17766 -0.0217,-0.0206 0.11769,-0.37894 0.24233,-0.62297 0.48741,-0.95874 1.51985,-2.27974 2.93014,-3.74855 0.14594,-0.15194 0.24415,-0.27647 0.21891,-0.27655 -0.0727,0 -0.65492,0.17793 -0.91535,0.28027 -0.39221,0.15401 -1.47747,0.6879 -2.13811,1.05197 -0.34289,0.18868 -0.70639,0.38855 -0.80852,0.44396 -0.10017,0.0554 -0.20029,0.11375 -0.21636,0.12969 -0.0638,0.057 -0.0928,0.027 -0.0761,-0.072 0.022,-0.0566 0.0222,-0.10079 -0.0215,-0.10095 -0.15268,0 0.31633,-0.5839 1.06303,-1.32589 0.65931,-0.65514 1.09344,-1.04848 2.2525,-2.04033 0.36569,-0.31298 0.65178,-0.57356 0.63546,-0.57909 -0.0963,-0.0322 -1.0043,0.24932 -1.61841,0.49994 -0.45499,0.18579 -0.69401,0.28972 -1.92722,0.83858 -0.8137,0.36206 -1.23738,0.53095 -1.26436,0.50394 -0.0706,-0.0717 0.49018,-0.82107 1.06611,-1.42368 0.76412,-0.80004 1.8118,-1.6962 3.46511,-2.96441 0.27133,-0.2078 0.6945,-0.53639 1.04209,-0.80884 0.10933,-0.0865 0.18228,-0.1629 0.15869,-0.17047 -0.0218,-0.007 -0.12726,0.0122 -0.23368,0.0424 -0.10372,0.0305 -0.36073,0.0979 -0.56393,0.14975 -0.43949,0.11148 -0.96921,0.24742 -1.61514,0.4142 -0.25889,0.0669 -0.73854,0.18686 -1.06614,0.26669 -0.32706,0.0801 -0.67525,0.1757 -0.7737,0.21307 -0.4064,0.1543 -0.96938,0.25264 -0.96908,0.16901 1e-4,-0.029 0.73498,-0.73039 1.56831,-1.49708 0.93393,-0.85924 2.32426,-2.03651 3.57401,-3.02653 0.24093,-0.1909 0.50542,-0.40087 0.58779,-0.46645 0.082,-0.0657 0.19135,-0.14925 0.24035,-0.18614 0.0492,-0.0369 0.35407,-0.2633 0.67606,-0.50326 0.86781,-0.64703 1.21874,-0.894 2.00072,-1.40898 0.65129,-0.42888 0.79151,-0.51678 1.17888,-0.73782 0.2324,-0.13255 1.33508,-0.66747 1.59936,-0.77568 1.34032,-0.54897 2.55461,-0.83589 3.852,-0.9103 0.44861,-0.0258 1.04558,0.0336 1.37744,0.1367 0.49087,0.15258 0.8975,0.28277 1.91406,0.61312 1.10208,0.3583 1.32774,0.42467 2.19493,0.64576 l 0.58361,0.14856 0.27339,-0.0766 c 1.88529,-0.52985 3.37909,-0.49543 4.39246,0.10114 0.39485,0.23261 1.09683,1.01216 1.39786,1.55218 0.056,0.10305 0.16056,0.33031 0.22665,0.50498 0.11344,0.29574 0.12415,0.34661 0.13182,0.7378 0.0204,0.38724 -0.0241,0.6277 -0.0755,0.78422 -0.022,0.0475 0.0287,0.1137 0.21017,0.28996 0.97166,0.94433 2.2653,1.65233 4.70565,2.57581 0.13796,0.0523 0.37281,0.14111 0.52019,0.19703 0.147,0.056 0.41977,0.15686 0.60472,0.22435 1.29197,0.47249 2.29205,0.93765 2.91861,1.35798 0.3367,0.22543 0.86777,0.73094 0.92322,0.87826 0.0468,0.12305 0.0801,0.44888 0.14414,1.35809 0.0986,1.4079 0.15151,1.84626 0.29821,2.43806 0.10576,0.42117 0.0879,0.83702 -0.0421,1.10904 -0.19685,0.41681 -0.53028,1.14908 -0.70086,1.54368 -0.0568,0.12919 -0.13745,0.31799 -0.18144,0.41953 -0.29157,0.6761 -0.40545,1.01071 -0.35467,1.04223 0.029,0.0185 0.0215,0.0706 -0.097,0.18845 -0.20516,0.24207 -0.27624,0.29984 -0.49756,0.40257 -0.18881,0.0882 -0.22861,0.0935 -0.63894,0.0906 -0.24029,0 -0.52336,-0.0222 -0.62869,-0.0464 l -0.19064,-0.0432 -0.17861,0.13036 c -0.48089,0.35168 -1.00634,0.67844 -1.76168,1.09516 -0.85059,0.46928 -0.74034,0.43267 -1.29556,0.43082 -0.69807,-0.002 -1.33753,-0.11475 -2.78813,-0.48943 -1.32291,-0.34175 -1.6848,-0.42377 -2.14953,-0.48724 -0.59704,-0.0817 -0.86947,-0.0851 -1.27974,-0.0174 -0.3895,0.0648 -0.73004,0.20095 -1.33422,0.53345 -0.58874,0.32407 -0.7668,0.42015 -1.12095,0.60518 -0.83596,0.43631 -1.39273,0.98162 -1.80628,1.76769 -0.32919,0.62617 -0.52824,1.2823 -0.86457,2.85336 -0.22408,1.05231 -0.46393,1.85971 -0.63892,2.16252 l -0.0878,0.14781 0.10245,0.32291 c 0.11501,0.36078 0.25897,0.96921 0.23579,0.99213 -0.0218,0.007 -0.2417,0.0362 -0.51927,0.0618 -0.45361,0.042 -2.41987,0.0597 -2.77289,0.0244 z"
           id="path5359-25"
           inkscape:connector-curvature="0" />
      </g>
      <g
         transform="matrix(0.87620575,0,0,0.87620575,337.21177,121.63404)"
         id="g4781">
        <text
           xml:space="preserve"
           style="font-style:normal;font-variant:normal;font-weight:normal;font-stretch:normal;font-size:142.72953796px;line-height:125%;font-family:'Ananda Namaste';-inkscape-font-specification:'Ananda Namaste';letter-spacing:0px;word-spacing:0px;fill:#0075cb;fill-opacity:1;stroke:none;stroke-width:1px;stroke-linecap:butt;stroke-linejoin:miter;stroke-opacity:1"
           x="-154.56567"
           y="173.28743"
           id="text5562"
           sodipodi:linespacing="125%"><tspan
             sodipodi:role="line"
             id="tspan5564"
             x="-154.56567"
             y="173.28743">nepal</tspan></text>
        <text
           xml:space="preserve"
           style="font-style:normal;font-variant:normal;font-weight:bold;font-stretch:normal;font-size:94.63510132px;line-height:125%;font-family:Meta;-inkscape-font-specification:'Meta Bold';letter-spacing:0px;word-spacing:0px;fill:#de362c;fill-opacity:1;stroke:none;stroke-width:1px;stroke-linecap:butt;stroke-linejoin:miter;stroke-opacity:1"
           x="-149.58737"
           y="86.373299"
           id="text4166"
           sodipodi:linespacing="125%"><tspan
             sodipodi:role="line"
             id="tspan4168"
             x="-149.58737"
             y="86.373299">mozilla</tspan></text>
      </g>
    </g>
  </g>
</svg>
